<svg xmlns="http://www.w3.org/2000/svg" viewBox="0 0 100 100"><path d="M19.5,90c-5.238,0-9.5-4.262-9.5-9.5v-57c0-5.238,4.262-9.5,9.5-9.5h65 c5.238,0,9.5,4.262,9.5,9.5v57c0,5.238-4.262,9.5-9.5,9.5H19.5z" opacity=".35"/><path fill="#f2f2f2" d="M17.5,88C12.262,88,8,83.738,8,78.5v-57c0-5.238,4.262-9.5,9.5-9.5h65c5.238,0,9.5,4.262,9.5,9.5v57 c0,5.238-4.262,9.5-9.5,9.5H17.5z"/><path fill="#d9eeff" d="M85.5,30.085V78.5c0,1.657-1.343,3-3,3h-65c-1.657,0-3-1.343-3-3V29.723L85.5,30.085z"/><path fill="#9aa2e6" d="M82.5,18.5h-65c-1.657,0-3,1.343-3,3V32h71V21.5C85.5,19.843,84.157,18.5,82.5,18.5z"/><path fill="#40396e" d="M82.5,83h-65c-2.481,0-4.5-2.019-4.5-4.5v-57c0-2.481,2.019-4.5,4.5-4.5h65 c2.481,0,4.5,2.019,4.5,4.5v57C87,80.981,84.981,83,82.5,83z M17.5,20c-0.827,0-1.5,0.673-1.5,1.5v57c0,0.827,0.673,1.5,1.5,1.5h65 c0.827,0,1.5-0.673,1.5-1.5v-57c0-0.827-0.673-1.5-1.5-1.5H17.5z"/><path fill="#d9eeff" d="M28.976,24L28.976,24c1.105,0,2,0.895,2,2v0c0,1.105-0.895,2-2,2h0c-1.105,0-2-0.895-2-2v0 C26.976,24.895,27.871,24,28.976,24z"/><path fill="#ff7575" d="M21.976,24L21.976,24c1.105,0,2,0.895,2,2v0c0,1.105-0.895,2-2,2h0c-1.105,0-2-0.895-2-2v0 C19.976,24.895,20.871,24,21.976,24z"/><path fill="#f2f2f2" d="M78.024,28h-42c-1.105,0-2-0.895-2-2v0c0-1.105,0.895-2,2-2h42c1.105,0,2,0.895,2,2v0 C80.024,27.105,79.129,28,78.024,28z"/><circle cx="50" cy="56" r="19" fill="#ff7575"/><circle cx="50" cy="56" r="13" fill="#d9eeff"/><rect width="30.828" height="6" x="33.586" y="53" fill="#ff7575" transform="rotate(-45.001 49 56)"/></svg>