<svg xmlns="http://www.w3.org/2000/svg" baseProfile="basic" viewBox="0 0 100 100"><path d="M52.4404297,92.2802734c-1.1035156,0-2.2099609-0.2568359-3.2001953-0.7421875 c-6.5800781-3.2421875-11.6035156-8.6494141-14.6884766-15.7597656l-13.7158203-0.0058594 c-8.9619141-0.0029297-16.2529297-7.3222656-16.2529297-16.3164062c0-6.6650391,4.0351562-12.5097656,9.8964844-15.0166016 c0.3271484-2.6367188,1.234375-5.1962891,2.7128906-7.6474609c2.8212891-4.6796875,7.3603516-7.9511719,12.453125-8.9755859 c1.2822266-0.2578125,2.5888672-0.3886719,3.8828125-0.3886719c0.0693359,0,0.1396484,0,0.2099609,0.0009766 c1.8574219-4.6357422,5.0605469-8.6103516,9.3017578-11.4638672c4.1357422-2.7822266,8.9394531-4.2519531,13.8916016-4.2519531 c2.4736328,0,4.9716797,0.3642578,7.4228516,1.0830078c7.3652344,2.1572266,13.3525391,7.7714844,16.0166016,15.0185547 c0.9160156,2.4912109,1.4501953,5.0751953,1.5947266,7.6572266c1.9023438,0.2626953,3.78125,0.8007812,5.6113281,1.6083984 c5.3710938,2.3662109,9.5087891,7.1513672,11.0654297,12.7988281c1.7255859,6.2607422,0.5273438,12.7607422-3.2851562,17.8339844 c-3.7910156,5.0419922-9.5693359,7.9785156-15.8554688,8.0585938l-9.4033203,0.0058594 c-3.0234375,7.0908203-7.9482422,12.4882812-14.3974609,15.7294922 C54.6855469,92.0146484,53.5615234,92.2802734,52.4404297,92.2802734z" opacity=".35"/><path fill="#F2F2F2" d="M50.4404297,90.2802734c-1.1035156,0-2.2099609-0.2568359-3.2001953-0.7421875 c-6.5800781-3.2421875-11.6035156-8.6494141-14.6884766-15.7597656l-13.7158203-0.0058594 C9.8740234,73.7695312,2.5830078,66.4501953,2.5830078,57.4560547c0-6.6650391,4.0351562-12.5097656,9.8964844-15.0166016 c0.3271484-2.6367188,1.234375-5.1962891,2.7128906-7.6474609c2.8212891-4.6796875,7.3603516-7.9511719,12.453125-8.9755859 c1.2822266-0.2578125,2.5888672-0.3886719,3.8828125-0.3886719c0.0693359,0,0.1396484,0,0.2099609,0.0009766 c1.8574219-4.6357422,5.0605469-8.6103516,9.3017578-11.4638672c4.1357422-2.7822266,8.9394531-4.2519531,13.8916016-4.2519531 c2.4736328,0,4.9716797,0.3642578,7.4228516,1.0830078c7.3652344,2.1572266,13.3525391,7.7714844,16.0166016,15.0185547 c0.9160156,2.4912109,1.4501953,5.0751953,1.5947266,7.6572266c1.9023438,0.2626953,3.78125,0.8007812,5.6113281,1.6083984 c5.3710938,2.3662109,9.5087891,7.1513672,11.0654297,12.7988281c1.7255859,6.2607422,0.5273438,12.7607422-3.2851562,17.8339844 c-3.7910156,5.0419922-9.5693359,7.9785156-15.8554688,8.0585938l-9.4033203,0.0058594 c-3.0234375,7.0908203-7.9482422,12.4882812-14.3974609,15.7294922 C52.6855469,90.0146484,51.5615234,90.2802734,50.4404297,90.2802734z"/><path fill="#70BFFF" d="M82.9530029,41.0260277c-3.7170029-1.6380005-7.2689972-1.5309982-10.3410034-0.4150009 c1.2180023-3.7919998,1.2959976-8.0979996-0.3420029-12.5540009c-1.9509964-5.3069992-6.3410034-9.4420013-11.743-11.0240002 c-11.9440002-3.4979992-22.8729973,4.7520008-24.0099983,15.9190006c-2.2659988-0.9749985-4.8699989-1.3100014-7.5900002-0.7630005 c-3.4319992,0.6899986-6.3540001,2.9490013-8.1689987,5.9589996c-2.0739994,3.4410019-2.2420006,6.6399994-1.5629997,9.5100021 c-0.118-0.0040016-0.2339993-0.0180016-0.3530006-0.0180016c-5.3899994,0-9.7589998,4.3950005-9.7589998,9.8159981 c0,5.4199982,4.368,9.814003,9.7559996,9.8160019l-0.0009995,0.0080032h58.5830002l-0.0009995-0.0090027 c8.7330017-0.1100006,15.4970016-8.4469986,12.9560013-17.6660004 C89.3239975,45.7880287,86.5599976,42.6160278,82.9530029,41.0260277z"/><path fill="#5F90CC" d="M50.4404297,85.2802734c-0.34375,0-0.6894531-0.0800781-0.9980469-0.2314453 C33.4375,77.1660156,34.1650391,57.0908203,34.1748047,56.8886719c0.0566406-1.1689453,1.0322266-2.0820312,2.2216797-2.0820312 c5.9033203,0,12.2988281-5.8681641,12.3623047-5.9277344c0.4072266-0.3828125,0.9541016-0.5986328,1.5322266-0.5986328 c0.6660156,0.0185547,1.2392578,0.2763672,1.6416016,0.7089844c0.0517578,0.0537109,5.5722656,5.8173828,12.2529297,5.8173828 c1.1894531,0,2.1650391,0.9130859,2.2216797,2.078125c0.0097656,0.2050781,0.7402344,20.2685547-14.9511719,28.1542969 C51.1396484,85.1972656,50.7900391,85.2802734,50.4404297,85.2802734z M37.1699219,57.78125 c0.0625,3.4853516,1.0644531,18.1494141,13.2666016,24.4091797c11.9394531-6.2519531,12.9169922-20.8945312,12.9755859-24.4042969 c-6.3964844-0.3330078-11.5380859-4.703125-13.1513672-6.2333984C48.5166016,53.0400391,42.9345703,57.4101562,37.1699219,57.78125 z M50.8076172,51.0703125c-0.0029297,0.0029297-0.0058594,0.0058594-0.0107422,0.0097656 C50.8007812,51.0771484,50.8046875,51.0732422,50.8076172,51.0703125z"/><path fill="#FFC571" d="M50.4261246,82.1952896c-0.1042824,0-0.2094688-0.0235825-0.3046799-0.0707321 c-13.733181-6.7636719-13.0938988-24.0777245-13.0857391-24.2518272c0.0154152-0.3291626,0.303772-0.5894051,0.6556015-0.5894051 c5.9511948,0,12.0746803-5.681881,12.1354332-5.7390099c0.1233253-0.1151619,0.2910767-0.1795425,0.4642754-0.1795425 c0.0072517,0,0.0145073,0,0.021759,0c0.1813583,0.0054398,0.3527374,0.0816078,0.4715271,0.209465 c0.0534973,0.0571289,5.4089432,5.7090874,12.1064148,5.7090874c0.3509254,0,0.6401901,0.2602463,0.6556015,0.5894051 c0.0081635,0.1741028,0.6501617,17.4845314-12.8100777,24.2491035 C50.6392174,82.1708069,50.533123,82.1952896,50.4261246,82.1952896z"/><path fill="#40396E" d="M50.4404297,85.2802734c-0.34375,0-0.6894531-0.0800781-0.9980469-0.2314453 c-6.3769531-3.1416016-11.0058594-8.7529297-13.4375-16.2685547l-17.1669922-0.0078125 c-6.2060547-0.0019531-11.2548828-5.0791016-11.2548828-11.3164062c0-5.7578125,4.3007812-10.5253906,9.84375-11.2275391 c-0.3398438-3.0634766,0.3457031-6.0341797,2.046875-8.8544922c2.0996094-3.4824219,5.4375-5.9072266,9.1572266-6.6552734 c2.2519531-0.453125,4.5234375-0.375,6.6708984,0.2197266c1.0253906-5.2197266,4.0654297-9.8222656,8.5292969-12.8251953 c5.03125-3.3837891,11.1103516-4.2792969,17.1181641-2.5195312c5.8505859,1.7138672,10.609375,6.1796875,12.7285156,11.9453125 c1.3271484,3.6103516,1.6650391,7.3554688,1.0048828,10.9697266c2.9521484-0.5195312,5.9746094-0.1347656,8.8759766,1.1455078 c4.0136719,1.7685547,7.1025391,5.3398438,8.2636719,9.5527344c1.3105469,4.7558594,0.4130859,9.6767578-2.4619141,13.5019531 c-2.8515625,3.7929688-7.1962891,6.0029297-11.921875,6.0625l-12.8173828,0.0078125 c-2.3789062,7.5097656-6.9140625,13.1181641-13.1650391,16.2597656 C51.1396484,85.1972656,50.7900391,85.2802734,50.4404297,85.2802734z M18.9277344,49.1455078 c-4.6464844,0-8.3447266,3.7285156-8.3447266,8.3105469c0,4.5839844,3.7041016,8.3144531,8.2568359,8.3164062l18.2753906,0.0078125 c0.6679688,0,1.2548828,0.4423828,1.4404297,1.0839844c2.078125,7.1962891,6.0742188,12.3505859,11.8808594,15.3261719 c5.6816406-2.9716797,9.5927734-8.1240234,11.6240234-15.3173828c0.1816406-0.6464844,0.7714844-1.0927734,1.4423828-1.0927734 l13.9160156-0.0087891c3.7695312-0.0478516,7.2548828-1.8212891,9.5429688-4.8652344 c2.3125-3.0761719,3.0302734-7.0498047,1.9677734-10.9023438l0,0c-0.9238281-3.3525391-3.3837891-6.1953125-6.5820312-7.6054688 c-3.0751953-1.3554688-6.1806641-1.484375-9.2226562-0.3769531c-0.5380859,0.1943359-1.140625,0.0673828-1.5527344-0.3300781 c-0.4130859-0.3964844-0.5634766-0.9941406-0.3876953-1.5390625c1.2001953-3.7373047,1.0878906-7.7402344-0.3232422-11.578125 c-1.7919922-4.8779297-5.8134766-8.6542969-10.7558594-10.1015625c-5.1337891-1.5048828-10.3203125-0.7490234-14.5996094,2.1289062 c-4.2460938,2.8564453-6.9785156,7.4140625-7.4970703,12.5029297c-0.0478516,0.4746094-0.3203125,0.8984375-0.7324219,1.140625 c-0.4121094,0.2431641-0.9150391,0.2744141-1.3525391,0.0849609c-2.0917969-0.9013672-4.4082031-1.1347656-6.7011719-0.6699219 c-2.8974609,0.5820312-5.5146484,2.5-7.1806641,5.2626953c-1.6298828,2.7041016-2.0839844,5.4482422-1.3867188,8.3896484 c0.1074219,0.4550781-0.0029297,0.9335938-0.2988281,1.2958984s-0.7490234,0.5898438-1.2109375,0.5488281l-0.2070312-0.0117188 C18.9345703,49.1455078,18.9306641,49.1455078,18.9277344,49.1455078z"/></svg>