<svg xmlns="http://www.w3.org/2000/svg" viewBox="0 0 100 100"><path d="M52.309,96.04c-1.29,0-2.574-0.316-3.716-0.915C42.382,91.866,36.879,87.458,32.207,82h-4.255 l-1.004,1.004C26.982,83.335,27,83.667,27,84c0,5.514-4.486,10-10,10S7,89.514,7,84c0-2.356,0.819-4.525,2.187-6.236 C9,75,4,72.771,4,69c0-2.971,1.302-5.644,3.366-7.477C5.281,59.683,3.965,56.993,3.965,54c0-5.533,4.502-10.035,10.035-10.035 c0.732,0,1.446,0.079,2.135,0.229c-1.18-8.095-0.951-13.832-0.937-14.167c0.186-4.287,3.696-7.649,7.992-7.649 c8.961,0,19.763-8.727,23.168-12.089C47.859,8.791,49.866,7.961,52,7.961c0.065,0,0.168,0.002,0.262,0.005v0 c2.206,0.072,4.305,1.066,5.758,2.728c0.086,0.096,10.539,11.684,22.789,11.684c4.296,0,7.807,3.362,7.992,7.654 c0.015,0.331,0.244,6.064-0.907,14.156c0.68-0.146,1.384-0.223,2.106-0.223c5.533,0,10.035,4.502,10.035,10.035 c0,2.993-1.316,5.683-3.401,7.523C98.698,63.356,100,66.029,100,69c0,3.771-2.098,7.061-5.188,8.764C96.181,79.475,97,81.644,97,84 c0,5.514-4.486,10-10,10s-10-4.486-10-10c0-0.333,0.018-0.665,0.052-0.996L76.048,82h-3.92c-4.574,5.44-9.962,9.838-16.044,13.093 C54.927,95.712,53.622,96.04,52.309,96.04z" opacity=".35"/><path fill="#f2f2f2" d="M50.309,94.04c-1.29,0-2.574-0.316-3.716-0.915C40.382,89.866,34.879,85.458,30.207,80h-4.255 l-1.004,1.004C24.982,81.335,25,81.667,25,82c0,5.514-4.486,10-10,10S5,87.514,5,82c0-2.356,0.819-4.525,2.187-6.236 C4.098,74.061,2,70.771,2,67c0-2.971,1.302-5.644,3.366-7.477C3.281,57.683,1.965,54.993,1.965,52 c0-5.533,4.502-10.035,10.035-10.035c0.732,0,1.446,0.079,2.135,0.229c-1.18-8.095-0.951-13.832-0.937-14.167 c0.186-4.287,3.696-7.649,7.992-7.649c8.961,0,19.763-8.727,23.168-12.089C45.859,6.791,47.866,5.961,50,5.961 c0.065,0,0.168,0.002,0.262,0.005v0c2.206,0.072,4.305,1.066,5.758,2.728c0.086,0.096,10.539,11.684,22.789,11.684 c4.296,0,7.807,3.362,7.992,7.654c0.015,0.331,0.244,6.064-0.907,14.156c0.68-0.146,1.384-0.223,2.106-0.223 c5.533,0,10.035,4.502,10.035,10.035c0,2.993-1.316,5.683-3.401,7.523C96.698,61.356,98,64.029,98,67 c0,3.771-2.098,7.061-5.188,8.764C94.181,77.475,95,79.644,95,82c0,5.514-4.486,10-10,10s-10-4.486-10-10 c0-0.333,0.018-0.665,0.052-0.996L74.048,80h-3.92c-4.574,5.44-9.962,9.838-16.044,13.093C52.927,93.712,51.622,94.04,50.309,94.04 z"/><path fill="#ffc571" d="M50.31,87.539c-0.239,0-0.479-0.058-0.697-0.172c-31.402-16.47-29.94-58.633-29.921-59.057 c0.035-0.802,0.695-1.435,1.499-1.435c13.607,0,27.609-13.836,27.749-13.976c0.281-0.281,0.664-0.438,1.061-0.438 c0.017,0,0.033,0,0.049,0c0.415,0.014,0.806,0.199,1.079,0.511c0.122,0.139,12.369,13.903,27.682,13.903 c0.803,0,1.464,0.633,1.499,1.435c0.019,0.424,1.487,42.579-29.291,59.051C50.796,87.479,50.553,87.539,50.31,87.539z"/><path fill="#40396e" d="M50,13.961c0,0,12.607,14.416,28.81,14.416c0,0,1.802,41.445-28.5,57.663 C19.388,69.822,21.19,28.376,21.19,28.376C35.598,28.376,50,13.961,50,13.961 M50,10.961c-0.794,0-1.557,0.315-2.121,0.878l0,0 c-0.136,0.135-13.716,13.538-26.689,13.538c-1.606,0-2.927,1.265-2.997,2.87c-0.019,0.442-0.431,10.979,3.069,23.677 c4.694,17.03,14.257,29.746,27.654,36.773c0.436,0.229,0.915,0.343,1.393,0.343c0.487,0,0.973-0.118,1.416-0.355 c13.138-7.031,22.507-19.749,27.094-36.778c3.418-12.69,3.006-23.218,2.987-23.66c-0.07-1.605-1.391-2.87-2.997-2.87 c-14.672,0-26.434-13.257-26.552-13.391c-0.547-0.625-1.328-0.996-2.159-1.023C50.066,10.961,50.033,10.961,50,10.961L50,10.961z"/><path fill="#40396e" d="M50.001,41.001c-3.313,0-5.999,2.686-5.999,5.999s2.686,5.999,5.999,5.999S56,50.313,56,47 S53.314,41.001,50.001,41.001z"/><polygon fill="#40396e" points="50.001,46.089 42.003,63 58,63"/><polygon fill="#40396e" points="26,62 19.639,62 11.301,53.662 13.422,51.541 20.881,59 26,59"/><rect width="14" height="3" x="15" y="66" fill="#40396e"/><polygon fill="#40396e" points="16.422,82.459 14.301,80.338 22.639,72 34,72 34,75 23.881,75"/><circle cx="12" cy="52" r="3.536" fill="#9aa2e6"/><path fill="#40396e" d="M12,57.035c-2.776,0-5.035-2.259-5.035-5.035S9.224,46.965,12,46.965s5.035,2.259,5.035,5.035 S14.776,57.035,12,57.035z M12,49.965c-1.122,0-2.035,0.913-2.035,2.035s0.913,2.035,2.035,2.035s2.035-0.913,2.035-2.035 S13.122,49.965,12,49.965z"/><circle cx="15" cy="82" r="3.5" fill="#9aa2e6"/><path fill="#40396e" d="M15,87c-2.757,0-5-2.243-5-5s2.243-5,5-5s5,2.243,5,5S17.757,87,15,87z M15,80 c-1.103,0-2,0.897-2,2s0.897,2,2,2s2-0.897,2-2S16.103,80,15,80z"/><circle cx="12" cy="67" r="3.5" fill="#9aa2e6"/><path fill="#40396e" d="M12,72c-2.757,0-5-2.243-5-5s2.243-5,5-5s5,2.243,5,5S14.757,72,12,72z M12,65 c-1.103,0-2,0.897-2,2s0.897,2,2,2s2-0.897,2-2S13.103,65,12,65z"/><polygon fill="#40396e" points="74,59 79.119,59 86.578,51.541 88.699,53.662 80.361,62 74,62"/><rect width="14" height="3" x="71" y="66" fill="#40396e"/><polygon fill="#40396e" points="76.119,75 67,75 67,72 77.361,72 85.699,80.338 83.578,82.459"/><g><circle cx="88" cy="52" r="3.536" fill="#9aa2e6"/><path fill="#40396e" d="M82.965,52c0-2.776,2.259-5.035,5.035-5.035s5.035,2.259,5.035,5.035S90.776,57.035,88,57.035 S82.965,54.776,82.965,52z M85.965,52c0,1.122,0.913,2.035,2.035,2.035s2.035-0.913,2.035-2.035S89.122,49.965,88,49.965 S85.965,50.878,85.965,52z"/></g><g><circle cx="85" cy="82" r="3.5" fill="#9aa2e6"/><path fill="#40396e" d="M80,82c0-2.757,2.243-5,5-5c2.757,0,5,2.243,5,5s-2.243,5-5,5C82.243,87,80,84.757,80,82z M83,82 c0,1.103,0.897,2,2,2c1.103,0,2-0.897,2-2s-0.897-2-2-2C83.897,80,83,80.897,83,82z"/></g><g><circle cx="88" cy="67" r="3.5" fill="#9aa2e6"/><path fill="#40396e" d="M83,67c0-2.757,2.243-5,5-5c2.757,0,5,2.243,5,5s-2.243,5-5,5C85.243,72,83,69.757,83,67z M86,67 c0,1.103,0.897,2,2,2c1.103,0,2-0.897,2-2s-0.897-2-2-2C86.897,65,86,65.897,86,67z"/></g></svg>