<svg xmlns="http://www.w3.org/2000/svg" viewBox="0 0 100 100"><path d="M15.5,95.979c-3.584,0-6.5-2.916-6.5-6.5V57.548c0-3.584,2.916-6.5,6.5-6.5h7.574c-0.133-1.272-0.199-2.571-0.199-3.892 c0-15.14,8.769-21.163,13.949-22.335c0.468-0.106,0.953-0.16,1.437-0.16c0.422,0,0.842,0.042,1.252,0.123 c-0.021-0.407-0.033-0.807-0.033-1.197c-0.001-8.034,5.62-13.543,10.843-15.262c0.638-0.214,1.33-0.326,2.031-0.326 c1.633,0,3.194,0.608,4.396,1.714c1.722,1.574,2.467,3.978,1.935,6.263c-0.223,0.95,1.92,3.261,3.811,5.3 c2.324,2.506,5.354,5.772,7.43,10.09c0.237-0.026,0.477-0.04,0.717-0.04c1.006,0,2.013,0.238,2.912,0.689 c2.272,1.141,7.544,5.273,7.571,19.033H86.5c3.584,0,6.5,2.916,6.5,6.5v31.932c0,3.584-2.916,6.5-6.5,6.5H15.5z" opacity=".35"/><path fill="#f2f2f2" d="M13.5,93.979c-3.584,0-6.5-2.916-6.5-6.5V55.548c0-3.584,2.916-6.5,6.5-6.5h7.574 c-0.133-1.272-0.199-2.571-0.199-3.892c0-15.14,8.769-21.163,13.949-22.335c0.468-0.106,0.953-0.16,1.437-0.16 c0.422,0,0.842,0.042,1.252,0.123c-0.021-0.407-0.033-0.807-0.033-1.197C37.479,13.553,43.1,8.044,48.322,6.325 c0.638-0.214,1.33-0.326,2.031-0.326c1.633,0,3.194,0.608,4.396,1.714c1.722,1.574,2.467,3.978,1.935,6.263 c-0.223,0.95,1.92,3.261,3.811,5.3c2.324,2.506,5.354,5.772,7.43,10.09c0.237-0.026,0.477-0.04,0.717-0.04 c1.006,0,2.013,0.238,2.912,0.689c2.272,1.141,7.544,5.273,7.571,19.033H84.5c3.584,0,6.5,2.916,6.5,6.5v31.932 c0,3.584-2.916,6.5-6.5,6.5H13.5z"/><path fill="#ffc571" d="M50.349,12.5c-2.097,9.088,13.282,13.283,13.282,27.263c0,2.151,0.61,2.088-0.106,4.031 c0,0,4.614-2.445,5-8.226c0,0,3.496,6.291,3.496,15.379c0,10.835-9.437,18.176-21.671,18.176s-22.343-7.556-22.343-23.635 c0-13.981,8.435-16.328,8.435-16.328s-2.171,7.805,4.121,7.805s3.496-10.486,3.496-15.379C44.058,14.597,50.349,12.5,50.349,12.5z"/><path fill="#ff7575" d="M50.349,68.149c-8.879,0-17.677-5.538-17.677-22.66c0-2.884,0.407-5.079,0.987-6.741 c1.647,1.865,4.075,2.884,6.903,2.884c3.163,0,5.122-1.43,6.208-2.631c3.247-3.586,2.057-15.522,2.01-16.16 c1.066,1.418,2.273,2.736,3.431,4.002c3.474,3.796,5.704,7.482,6.755,12.919c0.647,3.352-0.063,8.564-0.063,8.564 s3.76,1.161,8.202-1.3c0.155,1.222,0.251,2.535,0.251,3.921C67.355,58.903,60.362,68.149,50.349,68.149z"/><path fill="#fff" d="M47.853,41.493c1.394,7.077,12.118,7.328,12.118,17.297c0,3.692-2.601,9.281-9.985,9.281 s-9.98-5.828-9.98-10.258c0-4.431,3.328-5.661,3.328-5.661s0.011,2.989,2.447,2.63c3.364-0.496,0.218-4.863,0.218-8.847 C45.997,43.326,47.853,41.493,47.853,41.493z"/><rect width="71" height="31.931" x="13.5" y="57.021" fill="#f4665c"/><path fill="#40396e" d="M84.5,88.979h-71c-0.828,0-1.5-0.672-1.5-1.5V55.548c0-0.828,0.672-1.5,1.5-1.5h13.667 c-0.858-2.748-1.292-5.729-1.292-8.892c0-15.007,9.643-17.365,10.053-17.458c0.514-0.117,1.05,0.045,1.414,0.424 s0.503,0.922,0.366,1.43c-0.256,0.965-0.684,3.786,0.397,5.191c0.476,0.617,1.253,0.918,2.375,0.918 c0.993,0,1.425-0.351,1.663-0.614c1.432-1.586,0.969-6.124,0.63-9.438c-0.151-1.479-0.294-2.875-0.294-4.022 c-0.001-6.388,4.844-9.669,7.405-10.512c0.513-0.172,1.081-0.049,1.481,0.318c0.4,0.366,0.571,0.92,0.448,1.448 c-0.826,3.533,1.751,6.313,5.015,9.833c3.78,4.076,8.485,9.15,8.485,17.089c0,0.515-0.03,1.036-0.092,1.569 c0.906-0.925,1.842-2.614,1.919-5.547c0.013-0.514,0.288-0.984,0.729-1.248c0.441-0.263,0.986-0.283,1.443-0.054 c0.492,0.247,4.812,2.758,4.812,14.67c0,1.649-0.213,3.288-0.636,4.894H84.5c0.828,0,1.5,0.672,1.5,1.5v31.932 C86,88.308,85.328,88.979,84.5,88.979z M15,85.979h68V57.048H71.434c-0.493,0-0.955-0.243-1.235-0.649s-0.342-0.924-0.166-1.385 c0.725-1.901,1.093-3.873,1.093-5.859c0-4.863-0.759-7.838-1.538-9.611c-1.096,3.655-3.495,5.012-4.359,5.392 c-0.718,0.316-2.051,0.728-2.944-0.051c-0.48-0.419-0.67-1.06-0.496-1.673c0.36-1.268,0.527-2.363,0.527-3.447 c0-6.762-3.906-10.975-7.685-15.049c-2.836-3.059-5.547-5.982-5.934-9.614c-1.491,1.117-3.217,3.134-3.217,6.486 c0,0.994,0.135,2.317,0.278,3.718c0.439,4.302,0.938,9.177-1.388,11.753c-0.961,1.063-2.27,1.604-3.89,1.604 c-2.604,0-4.025-1.141-4.759-2.098c-1.11-1.448-1.356-3.329-1.314-4.885c-2.284,1.546-5.532,5.2-5.532,13.478 c0,3.582,0.61,6.887,1.812,9.823c0.189,0.462,0.137,0.989-0.142,1.404c-0.279,0.415-0.746,0.664-1.246,0.664H15V85.979z"/><path fill="#40396e" d="M84.5,69.291H61V57.021h-3v12.271H38V57.021h-3v12.271H13.5c-0.829,0-1.5,0.672-1.5,1.5 s0.671,1.5,1.5,1.5H24V86.75c0,0.828,0.671,1.5,1.5,1.5s1.5-0.672,1.5-1.5V72.291h20V86.75c0,0.828,0.671,1.5,1.5,1.5 s1.5-0.672,1.5-1.5V72.291h20V86.75c0,0.828,0.671,1.5,1.5,1.5s1.5-0.672,1.5-1.5V72.291h11.5c0.829,0,1.5-0.672,1.5-1.5 S85.329,69.291,84.5,69.291z" opacity=".35"/></svg>