<svg xmlns="http://www.w3.org/2000/svg" viewBox="0 0 100 100"><path d="M51.537,95.778c-7.348,0-13.168-3.656-14.793-8.886c-1.639,0.976-3.557,1.496-5.587,1.496	c-3.953,0-8.19-1.97-11.625-5.405c-2.29-2.289-4.002-5.056-4.822-7.791c-0.94-3.136-0.711-6.245,0.571-8.797	c-5.346-1.53-9.103-7.409-9.103-14.858c0-7.705,4.021-13.731,9.66-15.002c-2.25-3.464-2.217-8.125-0.007-12.511l-2.928-2.929	c-2.534-2.534-2.534-6.657,0-9.191C14.132,10.676,15.764,10,17.5,10s3.368,0.676,4.596,1.904l3.079,3.079	c1.989-0.926,4.029-1.416,5.982-1.416c2.029,0,3.946,0.521,5.585,1.495c1.626-5.229,7.445-8.885,14.793-8.885	c7.346,0,13.168,3.657,14.797,8.888c1.64-0.976,3.557-1.496,5.587-1.496c3.953,0,8.19,1.97,11.625,5.405	c2.694,2.693,4.522,5.942,5.147,9.147c0.627,3.211,0.033,6.281-1.63,8.675c5.141,1.695,8.72,7.471,8.72,14.741	c0,7.001-3.319,12.616-8.156,14.536c1.431,2.609,1.721,5.851,0.74,9.12c-0.215,0.718-0.492,1.439-0.825,2.154l3.556,3.556	c2.534,2.534,2.534,6.657,0,9.191C89.868,91.324,88.236,92,86.5,92s-3.368-0.676-4.596-1.904l-3.402-3.401	c-2.166,1.108-4.414,1.696-6.584,1.696c-2.03,0-3.948-0.521-5.587-1.496C64.705,92.123,58.885,95.778,51.537,95.778z" opacity=".35"/><path fill="#f2f2f2" d="M49.537,93.778c-7.348,0-13.168-3.656-14.793-8.886c-1.639,0.976-3.557,1.496-5.587,1.496	c-3.953,0-8.19-1.97-11.625-5.405c-2.29-2.289-4.002-5.056-4.822-7.791c-0.94-3.136-0.711-6.245,0.571-8.797	c-5.346-1.53-9.103-7.409-9.103-14.858c0-7.705,4.021-13.731,9.66-15.002c-2.25-3.464-2.217-8.125-0.007-12.511l-2.928-2.929	c-2.534-2.534-2.534-6.657,0-9.191C12.132,8.676,13.764,8,15.5,8s3.368,0.676,4.596,1.904l3.079,3.079	c1.989-0.926,4.029-1.416,5.982-1.416c2.029,0,3.946,0.521,5.585,1.495c1.626-5.229,7.445-8.885,14.793-8.885	c7.346,0,13.168,3.657,14.797,8.888c1.64-0.976,3.557-1.496,5.587-1.496c3.953,0,8.19,1.97,11.625,5.405	c2.694,2.693,4.522,5.942,5.147,9.147c0.627,3.211,0.033,6.281-1.63,8.675c5.141,1.695,8.72,7.471,8.72,14.741	c0,7.001-3.319,12.616-8.156,14.536c1.431,2.609,1.721,5.851,0.74,9.12c-0.215,0.718-0.492,1.439-0.825,2.154l3.556,3.556	c2.534,2.534,2.534,6.657,0,9.191C87.868,89.324,86.236,90,84.5,90s-3.368-0.676-4.596-1.904l-3.402-3.401	c-2.166,1.108-4.414,1.696-6.584,1.696c-2.03,0-3.948-0.521-5.587-1.496C62.705,90.123,56.885,93.778,49.537,93.778z"/><rect width="10.036" height="11.152" x="44.517" y="70.166" fill="#739f4d"/><rect width="12.267" height="11.152" x="43.402" y="16.638" fill="#739f4d"/><rect width="11.152" height="12.267" x="69.051" y="43.401" fill="#739f4d"/><rect width="11.152" height="12.267" x="17.755" y="43.402" fill="#739f4d"/><rect width="11.152" height="11.828" x="63.21" y="23.812" fill="#739f4d" transform="rotate(-45.001 68.788 29.727)"/><rect width="11.152" height="11.828" x="24.707" y="62.315" fill="#739f4d" transform="rotate(-45.001 30.284 68.23)"/><rect width="12.616" height="11.152" x="23.696" y="24.429" fill="#739f4d" transform="rotate(-45.001 30.005 30.006)"/><rect width="11.039" height="11.152" x="62.987" y="62.932" fill="#739f4d" transform="rotate(-45.001 68.508 68.51)"/><path fill="#96c362" d="M20.822,67.441c1.524-1.524,5.055-0.465,7.885,2.366c2.831,2.831,3.89,6.361,2.366,7.885 s-5.055,0.465-7.885-2.366C20.356,72.495,19.297,68.965,20.822,67.441z"/><ellipse cx="49.535" cy="16.081" fill="#96c362" rx="7.248" ry="3.903"/><ellipse cx="49.535" cy="81.875" fill="#96c362" rx="7.248" ry="3.903"/><ellipse cx="81.875" cy="49.535" fill="#96c362" rx="3.903" ry="7.248"/><ellipse cx="16.081" cy="49.535" fill="#96c362" rx="3.903" ry="7.248"/><path fill="#96c362" d="M78.249,30.515c-1.524,1.524-5.055,0.465-7.885-2.366c-2.831-2.831-3.89-6.361-2.366-7.885 s5.055-0.465,7.885,2.366C78.714,25.46,79.773,28.991,78.249,30.515z"/><path fill="#96c362" d="M70.364,69.806c2.831-2.831,6.361-3.89,7.885-2.366s0.465,5.055-2.366,7.885 c-2.831,2.831-6.361,3.89-7.885,2.366S67.533,72.637,70.364,69.806z"/><path fill="#96c362" d="M23.187,22.63c2.831-2.831,6.361-3.89,7.885-2.366s0.465,5.055-2.366,7.885s-6.361,3.89-7.885,2.366 C19.297,28.991,20.356,25.46,23.187,22.63z"/><g><path fill="#40396e" d="M49.535,12.178c4.003,0,7.249,1.747,7.249,3.903c0,1.103-0.852,2.097-2.22,2.806 c-0.711,0.369-1.126,1.136-1.126,1.937l-0.001,3.397c0,1.014,0.685,1.905,1.667,2.157c0.297,0.076,0.583,0.155,0.837,0.234 c1.944,0.605,3.769,1.468,5.455,2.535c0.365,0.231,0.774,0.343,1.182,0.343c0.57,0,1.136-0.221,1.564-0.648 c0.89-0.888,2.054-2.049,2.879-2.872c0.563-0.562,0.81-1.39,0.569-2.149c-0.468-1.47-0.372-2.777,0.409-3.558 c0.473-0.473,1.138-0.697,1.916-0.697c1.73,0,4.016,1.11,5.969,3.063c2.831,2.831,3.89,6.361,2.366,7.885 c-0.47,0.47-1.131,0.692-1.904,0.692c-0.508,0-1.064-0.096-1.645-0.28c-0.198-0.063-0.4-0.092-0.601-0.092 c-0.577,0-1.146,0.246-1.567,0.666l-2.985,2.984c-0.717,0.717-0.855,1.824-0.343,2.698c0.885,1.511,1.608,3.128,2.138,4.831 c0.228,0.733,0.347,1.154,0.434,1.61l0.036,0.186c0.201,1.051,1.119,1.811,2.189,1.813l3.126,0.006c0.001,0,0.003,0,0.004,0 c0.801,0,1.568-0.415,1.937-1.126c0.709-1.366,1.703-2.217,2.805-2.217c2.156,0,3.903,3.245,3.903,7.249 c0,4.003-1.747,7.248-3.903,7.248c-1.103,0-2.098-0.852-2.807-2.22c-0.369-0.711-1.136-1.126-1.937-1.126h-3.411 c-1.001,0-1.877,0.667-2.141,1.632c-0.548,2.005-1.375,3.947-2.393,5.709c-0.504,0.872-0.36,1.97,0.352,2.682l2.994,2.994 c0.42,0.42,0.989,0.666,1.566,0.666c0.201,0,0.403-0.03,0.601-0.092c0.582-0.184,1.138-0.28,1.645-0.28 c0.772,0,1.434,0.222,1.904,0.692c1.524,1.524,0.465,5.055-2.366,7.885c-1.953,1.953-4.239,3.063-5.969,3.063 c-0.778,0-1.444-0.224-1.916-0.697c-0.779-0.779-0.877-2.083-0.412-3.549c0.242-0.764-0.007-1.6-0.573-2.167l-2.86-2.86 c-0.429-0.429-0.998-0.652-1.572-0.652c-0.407,0-0.816,0.112-1.18,0.342c-1.687,1.068-3.514,1.932-5.459,2.538 c-0.303,0.094-0.654,0.189-1.014,0.28c-0.872,0.218-1.489,0.994-1.487,1.893l-0.002,3.614c0,0.801,0.414,1.569,1.126,1.938 c1.367,0.709,2.219,1.703,2.219,2.806c0,2.156-3.245,3.903-7.249,3.903c-4.003,0-7.248-1.747-7.248-3.903 c0-1.103,0.852-2.098,2.22-2.807c0.711-0.369,1.126-1.134,1.126-2.303v-2.789c0-1.034-0.713-1.937-1.723-2.159 c-2.41-0.528-4.681-1.421-6.749-2.629c-0.343-0.2-0.722-0.297-1.099-0.297c-0.575,0-1.146,0.226-1.574,0.654l-2.429,2.429 c-0.567,0.567-0.816,1.403-0.573,2.167c0.465,1.466,0.367,2.77-0.412,3.549c-0.473,0.473-1.138,0.697-1.916,0.697 c-1.73,0-4.016-1.11-5.969-3.063c-2.831-2.831-3.89-6.361-2.366-7.885c0.47-0.47,1.131-0.692,1.904-0.692 c0.508,0,1.064,0.096,1.645,0.28c0.197,0.063,0.4,0.092,0.601,0.092c0.577,0,1.146-0.246,1.566-0.666l2.304-2.304 c0.732-0.732,0.864-1.872,0.312-2.748c-1.223-1.941-2.171-4.071-2.783-6.341c-0.259-0.963-1.142-1.624-2.139-1.624h-3.407 c-0.801,0-1.569,0.415-1.937,1.126c-0.709,1.367-1.703,2.22-2.807,2.22c-2.156,0-3.903-3.245-3.903-7.248s1.747-7.249,3.903-7.249 c1.105,0,2.1,0.855,2.81,2.226c0.367,0.709,1.131,1.122,1.929,1.125l3.126,0.011c0.003,0,0.005,0,0.008,0 c1.08,0,2.009-0.778,2.196-1.843c0.025-0.144,0.048-0.264,0.065-0.343c0.119-0.546,0.169-0.716,0.397-1.449 c0.605-1.946,1.47-3.773,2.538-5.459c0.555-0.876,0.424-2.018-0.31-2.752L26.538,31.5c-0.42-0.42-0.989-0.666-1.567-0.666 c-0.201,0-0.404,0.03-0.601,0.092c-0.581,0.184-1.137,0.28-1.645,0.28c-0.772,0-1.434-0.222-1.904-0.692 c-1.524-1.524-0.465-5.055,2.366-7.885c1.953-1.953,4.239-3.063,5.969-3.063c0.778,0,1.444,0.224,1.916,0.697 c0.779,0.779,0.877,2.083,0.412,3.549c-0.242,0.764,0.003,1.597,0.845,2.439l2.169,2.169c0.427,0.427,0.992,0.649,1.565,0.649 c0.379,0,0.761-0.097,1.107-0.297c2.057-1.186,4.365-2.113,6.709-2.629c1.023-0.225,1.753-1.123,1.753-2.17v-3.149 c0-0.801-0.415-1.569-1.126-1.938c-1.367-0.709-2.219-1.703-2.219-2.806C42.287,13.925,45.532,12.178,49.535,12.178 M49.535,9.178 c-5.843,0-10.248,2.968-10.248,6.903c0,2.058,1.211,3.927,3.345,5.196v2.078c-2.186,0.54-4.389,1.404-6.434,2.523l-1.699-1.699 c0.612-2.406,0.148-4.583-1.305-6.036c-1.031-1.031-2.427-1.576-4.037-1.576c-2.598,0-5.623,1.473-8.091,3.941 c-4.131,4.131-5.148,9.345-2.366,12.128c1.028,1.028,2.419,1.571,4.025,1.571c0.646,0,1.32-0.089,2.011-0.266l1.547,1.547 c-1.078,1.794-1.929,3.686-2.535,5.635c-0.214,0.689-0.302,0.978-0.424,1.524l-2.042-0.007c-1.269-2.139-3.14-3.352-5.2-3.352 c-3.935,0-6.903,4.406-6.903,10.249s2.968,10.248,6.903,10.248c2.058,0,3.927-1.211,5.196-3.345h2.366 c0.621,2.104,1.508,4.127,2.643,6.026l-1.549,1.549c-0.691-0.177-1.365-0.266-2.011-0.266c-1.606,0-2.997,0.543-4.025,1.571 c-1.532,1.532-1.97,3.878-1.203,6.436c0.587,1.957,1.854,3.978,3.568,5.692c2.468,2.468,5.492,3.941,8.09,3.941 c1.611,0,3.007-0.545,4.038-1.576c1.453-1.453,1.917-3.63,1.305-6.036l1.69-1.69c2.022,1.117,4.184,1.96,6.444,2.514v2.078 c-2.134,1.269-3.345,3.138-3.345,5.196c0,3.935,4.406,6.903,10.248,6.903c5.843,0,10.249-2.968,10.249-6.903 c0-2.057-1.211-3.926-3.344-5.195l0.001-2.355c0.138-0.039,0.269-0.078,0.392-0.116c1.948-0.606,3.841-1.458,5.635-2.535 l2.105,2.105c-0.612,2.406-0.148,4.583,1.305,6.036c1.031,1.031,2.427,1.576,4.038,1.576c2.598,0,5.623-1.473,8.09-3.941 c1.714-1.714,2.981-3.735,3.568-5.692c0.768-2.559,0.329-4.904-1.203-6.436c-1.027-1.028-2.419-1.571-4.025-1.571 c-0.646,0-1.32,0.089-2.011,0.266l-2.256-2.256c0.936-1.705,1.684-3.489,2.23-5.32h2.371c1.269,2.134,3.138,3.345,5.196,3.345 c3.935,0,6.903-4.406,6.903-10.248s-2.968-10.249-6.903-10.249c-2.056,0-3.925,1.21-5.194,3.342l-2.049-0.004 c-0.104-0.45-0.238-0.906-0.424-1.502c-0.53-1.704-1.241-3.362-2.117-4.938l2.244-2.244c0.691,0.177,1.365,0.266,2.011,0.266 c1.605,0,2.997-0.543,4.025-1.571c2.783-2.783,1.766-7.997-2.365-12.128c-2.468-2.468-5.492-3.941-8.09-3.941 c-1.611,0-3.007,0.545-4.038,1.576c-1.453,1.453-1.917,3.629-1.305,6.034l-2.109,2.104c-1.793-1.076-3.684-1.927-5.63-2.532 c-0.125-0.039-0.258-0.078-0.395-0.117V21.28c2.134-1.269,3.346-3.138,3.346-5.196C59.784,12.145,55.378,9.178,49.535,9.178 L49.535,9.178z"/></g><g><path fill="#96c362" d="M72.489,48.978c0.039,12.985-10.526,23.511-23.511,23.511S25.467,61.963,25.467,48.978 s10.526-23.51,23.511-23.511C61.69,25.466,72.45,35.993,72.489,48.978z"/></g><g><circle cx="45.5" cy="51.5" r="4.5" fill="#739f4d"/><circle cx="32" cy="51" r="2" fill="#739f4d"/><circle cx="64" cy="54" r="3" fill="#739f4d"/><circle cx="47" cy="65" r="3" fill="#739f4d"/><circle cx="36.5" cy="61.5" r="1.5" fill="#739f4d"/><circle cx="64" cy="42" r="2" fill="#739f4d"/><circle cx="57" cy="62" r="1" fill="#739f4d"/><circle cx="47" cy="41" r="1" fill="#739f4d"/><circle cx="56" cy="48" r="1" fill="#739f4d"/><circle cx="42.5" cy="33.5" r="1.5" fill="#739f4d"/><circle cx="53" cy="34" r="3" fill="#739f4d"/><circle cx="35.038" cy="40.614" r="1.673" fill="#739f4d"/></g><line x1="15.5" x2="84.5" y1="14.5" y2="83.5" fill="none" stroke="#40396e" stroke-linecap="round" stroke-linejoin="round" stroke-miterlimit="10" stroke-width="3"/></svg>